<?xml version="1.0" encoding="utf-8"?>
<!-- Generator: Adobe Illustrator 22.0.1, SVG Export Plug-In . SVG Version: 6.00 Build 0)  -->
<svg version="1.1" xmlns="http://www.w3.org/2000/svg" xmlns:xlink="http://www.w3.org/1999/xlink" x="0px" y="0px"
	 viewBox="0 0 249.8 252" style="enable-background:new 0 0 249.8 252;" xml:space="preserve">
<style type="text/css">
	.st0{display:none;}
	.st1{display:inline;fill:#FFFFFF;stroke:#000000;stroke-miterlimit:10;}
	.st2{display:inline;fill:none;stroke:#000000;stroke-miterlimit:10;}
	.st3{display:inline;}
	.st4{fill:#8C6239;}
	.st5{fill:#808080;}
	.st6{fill:#333333;}
	.st7{fill:#999999;}
	.st8{fill:#FFFFFF;}
	.st9{fill:#754C24;}
	.st10{fill:#CCCCCC;}
	.st11{fill:#C1272D;}
	.st12{fill:#FCEE21;}
	.st13{stroke:#000000;stroke-width:0.5;stroke-miterlimit:10;}
	.st14{display:inline;fill:#666666;}
</style>
<g id="Layer_1">
</g>
<g id="Layer_2" class="st0">
	<circle class="st1" cx="52.2" cy="83.5" r="36"/>
	<path class="st1" d="M250.2,205c0,51.2-27.7,96.6-36,94.5c-5.7-1.5-0.2-24.7,0-90c0.2-71.4-6.1-97.4,0-99
		C222.6,108.4,250.2,153.8,250.2,205z"/>
	<path class="st1" d="M232.2,128.5c0,34.8-40.3,63-90,63s-90-28.2-90-63S232.2,93.7,232.2,128.5z"/>
</g>
<g id="Layer_3" class="st0">
	<rect x="-19.8" y="191.5" class="st2" width="315" height="9"/>
	<circle class="st1" cx="52.2" cy="83.5" r="36"/>
	<path class="st1" d="M247.1,195.4c-4.4,57.7-30.7,104.8-32.9,104.1c-0.6-0.2,0.8-4.5,2.8-13.2c7.9-35.6,6.4-64.8,5.6-80.6
		c-2.9-56.6-21-87.6-11.7-92.7c6-3.3,17.7,7.7,19.2,9C237.5,128.9,250.9,145.9,247.1,195.4z"/>
	<path class="st1" d="M229,177.1c-4.4,48.1-30.7,87.5-32.9,86.9c-0.6-0.2,0.8-3.8,2.8-11c7.9-29.7,6.4-54.1,5.6-67.3
		c-2.9-47.2-21-73.1-11.7-77.4c6-2.8,17.7,6.4,19.2,7.5C219.4,121.6,232.8,135.8,229,177.1z"/>
	<path class="st1" d="M232.2,128.5c0,34.8-40.3,63-90,63s-90-28.2-90-63S232.2,93.7,232.2,128.5z"/>
	<path class="st2" d="M81.7,62.4c5.3,6.9,14.4,17.2,28.5,26c14,8.8,27.2,12.6,35.7,14.4"/>
	<path class="st2" d="M24.4,106.3c3.5,7.5,8.3,16.1,14.8,25.2c7.4,10.3,15.1,18.4,21.7,24.6"/>
	<path class="st2" d="M112.5,82"/>
	<line class="st2" x1="17.4" y1="74.5" x2="-2.6" y2="83.9"/>
	<line class="st2" x1="16" y1="83.6" x2="-2.1" y2="83.7"/>
	<line class="st2" x1="17" y1="92.7" x2="-1.9" y2="88.9"/>
	<line class="st2" x1="16.4" y1="83.9" x2="-1.7" y2="88.9"/>
	<ellipse class="st1" cx="48.4" cy="70.5" rx="7.2" ry="7.3"/>
	<path class="st2" d="M188.1,182.8c2.1-0.8,5.6-1.9,10.1-1.7c2.4,0.1,4.4,0.6,6,1.2"/>
</g>
<g id="Layer_4" class="st0">
	<rect x="-19.8" y="191.6" class="st2" width="315" height="9"/>
	<path class="st2" d="M229.5,121.5C229.5,121.5,229.5,121.5,229.5,121.5c-1.3-1.2-4.3-3.9-7.7-6c0,0,0,0,0,0c-1.8-1-3.8-1.9-6-2.8
		c-27.7-11.1-46.1-5.1-71.4-10.3c-8.1-1.7-19.7-5.1-33.1-13.1c-1.4-0.9-3.6-2.3-6.1-4.1C93,76.5,88.6,69.3,81.9,63
		c-5.7-5.4-16.1-15.4-29.7-15.4c-20.8-0.1-33.8,22.9-34.9,27.1c-0.7,2.9-1.1,5.8-1.1,8.9c0,0,0,0.3,0,0.5c0.2,7.9,8.1,22.8,8.1,22.8
		c3,5.8,5,9.5,8.2,14.6c2.7,4.3,5.2,7.9,7.1,10.6c3,4.1,6.4,8.4,10.1,12.8c3.4,4,6.8,7.8,10.1,11.2c7.5,7.2,38,35,82.5,35.6
		c30.3,0.4,53.9-12.1,61.3-16.9c5.2-3.4,9.9-7.2,13.8-11.4c4.8-5,8.5-10.6,11.1-16.5c2.5-5.8,3.8-11.9,3.8-18.2
		C232.2,126,231.3,123.7,229.5,121.5z M48.4,77.8c-4,0-7.2-3.3-7.2-7.3c0-4,3.2-7.3,7.2-7.3c4,0,7.2,3.2,7.2,7.3
		C55.6,74.5,52.4,77.8,48.4,77.8z"/>
	<ellipse class="st1" cx="48.4" cy="70.5" rx="7.2" ry="7.3"/>
	<path class="st1" d="M221.8,115.5c-1.8-1-3.8-1.9-6-2.8C217.8,113.2,219.8,114.3,221.8,115.5z"/>
	<path class="st1" d="M247.4,191.6c-0.1,1.3-0.2,2.6-0.3,3.9c-0.1,1.7-0.3,3.4-0.5,5.1c-5.5,55.3-30.4,99.7-32.4,98.9
		c-0.6-0.2,0.8-4.5,2.8-13.2c7.3-32.9,6.6-60.4,5.8-76.8c-0.1-1.4-0.1-2.6-0.2-3.8c-0.1-1.7-0.2-3.5-0.3-5.1c-0.2-3.1-0.5-6.1-0.8-9
		c-1-10.5-2.6-19.9-4.2-28.4c4.8-5,8.5-10.6,11.1-16.5c2.5-5.8,3.8-11.9,3.8-18.2c0-2.5-0.9-4.8-2.7-7c0.2,0.2,0.4,0.4,0.5,0.5
		C237.3,128.8,250.2,145.1,247.4,191.6z"/>
	<path class="st1" d="M229,177.2c-0.4,4.9-1.1,9.7-2,14.4c-0.6,3.1-1.2,6.1-1.9,9c-0.7,3-1.5,6-2.3,8.9c-9.3,32.2-25,55-26.7,54.5
		c-0.6-0.2,0.8-3.8,2.8-11c5.5-20.7,6.5-38.9,6.3-52.5c0-3.3-0.2-6.3-0.3-9c-0.1-2.1-0.2-4.1-0.3-5.8c-0.2-3.8-0.6-7.5-1-11.1
		c5.2-3.4,9.9-7.2,13.8-11.4c4.8-5,8.5-10.6,11.1-16.5C229.7,154.8,230.1,164.8,229,177.2z"/>
	<path class="st1" d="M229.5,121.5c-1.3-1.2-4.3-3.8-7.7-6C225.1,117.3,227.7,119.3,229.5,121.5z"/>
	<path class="st2" d="M112.5,82.1"/>
	<line class="st2" x1="17.4" y1="74.6" x2="-2.6" y2="84"/>
	<line class="st2" x1="16" y1="83.7" x2="-2.1" y2="83.8"/>
	<line class="st2" x1="17" y1="92.8" x2="-1.9" y2="88.9"/>
	<line class="st2" x1="16.4" y1="84" x2="-1.7" y2="88.9"/>
	<ellipse class="st1" cx="48.4" cy="70.5" rx="7.2" ry="7.3"/>
	<path class="st2" d="M188.1,182.8c2.1-0.8,5.6-1.9,10.1-1.7c2.4,0.1,4.4,0.6,6,1.2"/>
	<path class="st2" d="M52.2,146.5"/>
</g>
<g id="Layer_5" class="st0">
	<g id="XMLID_1_" class="st3">
		<g>
			<path class="st4" d="M286.5,154.6v9H238c0.2-1.7,0.3-3.4,0.4-5.1c0.1-1.3,0.2-2.6,0.3-3.9H286.5z"/>
			<path class="st5" d="M221.4,85c7.2,6.8,20.1,23.1,17.3,69.6c-0.1,1.3-0.2,2.6-0.3,3.9c-0.1,1.7-0.3,3.4-0.4,5.1
				c-5.5,55.3-30.4,99.7-32.4,98.9c-0.6-0.2,0.8-4.5,2.8-13.2c7.4-32.9,6.6-60.4,5.8-76.8c0.8-2.9,1.6-5.9,2.3-8.9
				c0.7-2.9,1.3-5.9,1.9-9c0.9-4.7,1.5-9.5,2-14.4c1.1-12.4,0.7-22.4-0.6-30.4c2.5-5.8,3.8-11.9,3.8-18.2c0-2.5-0.9-4.8-2.7-7
				C221.1,84.7,221.3,84.9,221.4,85z"/>
			<path class="st6" d="M7.6,47.1c0-0.1,0-0.3,0-0.4c0-0.1,0-0.2,0-0.2c0-3.1,0.4-6,1.1-8.9c1.1-4.2,14.1-27.3,34.9-27.1
				c13.6,0.1,24,10,29.7,15.4c6.7,6.3,11,13.6,23.3,22.3c2.5,1.8,4.7,3.2,6.1,4.1c13.4,8,25,11.5,33.1,13.1
				c25.4,5.2,43.7-0.8,71.4,10.3c2.2,0.9,4.2,1.8,6,2.8c0,0,0,0,0,0c3.4,2.1,6.4,4.8,7.7,6c0,0,0,0,0,0c1.8,2.2,2.7,4.5,2.7,7
				c0,6.3-1.3,12.5-3.8,18.2c-2.5,5.9-6.3,11.4-11.1,16.5c-3.9,4.2-8.6,8-13.8,11.4c-2.8,1.9-8.1,4.8-15.2,7.8
				c-11.1,4.6-26.7,9.1-44.8,9.1c-0.4,0-0.9,0-1.3,0C89.1,154,58.6,126.2,51,119c-3.3-3.4-6.7-7.2-10.1-11.2
				c-3.7-4.4-7-8.6-10.1-12.8c-1.9-2.7-4.4-6.3-7.1-10.6c-3.2-5.1-5.1-8.8-8.2-14.6c0,0-3.9-7.3-6.3-14.4
				C8.4,52.4,7.6,49.4,7.6,47.1z M47,33.5c0-4-3.2-7.3-7.2-7.3s-7.2,3.2-7.2,7.3c0,4,3.2,7.3,7.2,7.3S47,37.5,47,33.5z"/>
			<path class="st7" d="M219.7,109.8c1.3,8,1.8,18,0.6,30.4c-0.5,4.9-1.1,9.7-2,14.4c-0.6,3.1-1.2,6.1-1.9,9c-0.7,3.1-1.5,6-2.3,8.9
				c-9.3,32.2-25,55-26.7,54.5c-0.6-0.2,0.8-3.8,2.8-11c5.5-20.7,6.5-38.9,6.3-52.4c-0.1-3.3-0.2-6.3-0.3-9
				c-0.1-2.1-0.2-4.1-0.3-5.8c-0.1-1.1-0.2-2.3-0.3-3.4c-0.2-2.6-0.5-5.2-0.7-7.7c5.2-3.4,9.9-7.2,13.8-11.4
				C213.4,121.2,217.2,115.7,219.7,109.8z"/>
			<path class="st8" d="M220.8,84.5c-1.3-1.2-4.3-3.8-7.7-6C216.4,80.3,219.1,82.3,220.8,84.5z"/>
			<path class="st8" d="M213.1,78.5c-1.8-1-3.8-1.9-6-2.8C209.1,76.2,211.2,77.3,213.1,78.5z"/>
			<path class="st9" d="M196.5,163.6H-28.5v-9h163.3h61.3C196.3,157.3,196.4,160.3,196.5,163.6z"/>
			<path class="st10" d="M195.6,145.3L195.6,145.3c-1.6-0.5-3.6-1-6-1.2c-4.2-0.3-7.7,0.7-9.8,1.5l-0.1-0.3
				c7.1-2.9,12.4-5.9,15.2-7.8C195.1,140.1,195.4,142.7,195.6,145.3z"/>
			<ellipse class="st11" cx="39.8" cy="33.5" rx="7.2" ry="7.3"/>
			<path class="st12" d="M9.4,55.4l-1,0.3L-10.4,52l0,0l17.9-4.9C7.6,49.4,8.4,52.4,9.4,55.4z"/>
			<path class="st12" d="M-10.8,46.8l19.4-9.1c-0.7,2.9-1.1,5.8-1.1,8.9c0,0,0,0.1,0,0.2H7.4L-10.8,46.8z"/>
		</g>
		<g>
		</g>
	</g>
	<g class="st3">
		<path class="st13" d="M3.9,171.6h4.4l-17.6,11.6l18.7,16.5H5.8l-17.2-14.8v14.8H-14v-28.1h2.6v9.9L3.9,171.6z"/>
		<path class="st13" d="M43.4,176.8c-0.2-0.2-0.5-0.3-0.8-0.4c-0.3-0.1-0.7-0.2-1.2-0.2c-0.6,0-1.2,0.1-2,0.3
			c-0.7,0.2-1.6,0.5-2.6,1c0,0-0.1,0-0.1,0c0.9,1.2,1.5,2.5,2,3.8c0.5,1.3,0.7,2.8,0.7,4.3c0,2-0.4,3.8-1.2,5.6
			c-0.8,1.7-1.8,3.3-3.2,4.6c-1.4,1.3-2.9,2.3-4.7,3.1c-1.8,0.8-3.7,1.1-5.8,1.1c-2.1,0-4-0.4-5.9-1.1c-1.8-0.8-3.4-1.8-4.8-3.1
			c-1.4-1.3-2.4-2.8-3.2-4.6c-0.8-1.7-1.2-3.6-1.2-5.6c0-2,0.4-3.8,1.2-5.6c0.8-1.7,1.9-3.3,3.2-4.6c1.3-1.3,2.9-2.3,4.8-3.1
			c1.8-0.8,3.8-1.1,5.9-1.1c2.1,0,4,0.4,5.8,1.2c1.8,0.8,3.4,1.8,4.7,3.2l0.5-0.3c1.2-0.6,2.3-1,3.3-1.3c1-0.3,1.8-0.4,2.6-0.4
			c0.8,0,1.5,0.1,2.1,0.3c0.6,0.2,1.1,0.5,1.5,0.8L43.4,176.8z M36.7,185.7c0-1.3-0.2-2.5-0.6-3.7c-0.4-1.2-1-2.3-1.7-3.3
			c-1.6,0.7-3,1.3-4.3,1.7c-1.3,0.4-2.5,0.6-3.8,0.6h-1.5c-0.4,0-1,0-1.6-0.1c-0.6,0-1.3-0.1-2.1-0.3c-0.8-0.2-1.8-0.4-2.9-0.7
			c-1.1-0.3-2.4-0.7-3.8-1.2c-0.7,1-1.3,2.1-1.7,3.2s-0.6,2.4-0.6,3.7c0,1.6,0.3,3.2,1,4.6c0.7,1.4,1.5,2.7,2.6,3.8
			c1.1,1.1,2.4,1.9,3.9,2.5c1.5,0.6,3.1,0.9,4.8,0.9c1.7,0,3.3-0.3,4.8-0.9c1.5-0.6,2.8-1.5,3.9-2.5c1.1-1.1,2-2.3,2.6-3.8
			C36.4,188.8,36.7,187.3,36.7,185.7z M24.4,173.8c-1.6,0-3,0.3-4.4,0.8c-1.4,0.5-2.6,1.2-3.7,2.1c2.4,0.8,4.2,1.3,5.6,1.5
			c1.3,0.2,2.4,0.3,3.2,0.3c0.1,0,0.3,0,0.4,0c0.1,0,0.3,0,0.4,0h0.2c0.9,0,1.8-0.2,2.9-0.5c1.1-0.3,2.2-0.8,3.6-1.3
			c-1.1-0.9-2.3-1.6-3.7-2.2S26,173.8,24.4,173.8z"/>
		<path class="st13" d="M51.2,199.7v-15.4c-0.1,0-0.3,0-0.6,0c-0.3,0-0.7-0.1-1.2-0.2c-0.5-0.1-1-0.3-1.5-0.5
			c-0.5-0.2-1-0.5-1.4-0.9l1.9-1.7c0.3,0.2,0.7,0.4,1.1,0.6s1,0.2,1.6,0.3v-10.2h20.7v2.5H53.7v7.8h15.7v2.5H53.7v12.9h18.5v2.5
			H51.2z"/>
		<path class="st13" d="M100.4,197.2v2.5H79.4v-28.1h2.6v25.6H100.4z"/>
	</g>
</g>
<g id="Layer_6">
	<g id="XMLID_2_">
		<g>
			<path class="st5" d="M231.6,74c0.2,0.2,0.4,0.4,0.5,0.5c7.2,6.8,20.1,23.1,17.3,69.6c-0.1,1.3-0.2,2.6-0.3,3.9
				c-0.1,1.7-0.3,3.4-0.4,5.1c-5.5,55.3-30.4,99.7-32.4,98.9c-0.6-0.2,0.8-4.5,2.8-13.2c7.3-32.9,6.6-60.4,5.8-76.8
				c0.8-2.9,1.6-5.9,2.4-8.9c0.7-2.9,1.3-5.9,1.9-9c0.9-4.7,1.5-9.5,2-14.4c1.1-12.4,0.7-22.4-0.6-30.4c2.5-5.8,3.8-11.9,3.8-18.2
				C234.3,78.5,233.4,76.2,231.6,74z"/>
			<path class="st7" d="M230.5,99.2c1.3,8,1.8,18,0.6,30.4c-0.4,4.9-1.1,9.7-2,14.4c-0.6,3.1-1.2,6.1-1.9,9c-0.7,3.1-1.5,6-2.4,8.9
				c-9.3,32.2-25,55-26.6,54.5c-0.6-0.2,0.8-3.8,2.8-11c5.5-20.7,6.5-38.9,6.3-52.4c-0.1-3.3-0.2-6.3-0.3-9
				c-0.1-2.1-0.2-4.1-0.3-5.8c-0.1-1.1-0.1-2.3-0.3-3.4c-0.2-2.6-0.4-5.2-0.7-7.7c5.2-3.4,9.9-7.2,13.8-11.4
				C224.2,110.7,227.9,105.1,230.5,99.2z"/>
			<path class="st8" d="M231.6,74c-1.3-1.2-4.3-3.8-7.7-6C227.2,69.8,229.8,71.8,231.6,74z"/>
			<path class="st8" d="M223.9,68c-1.8-1-3.8-1.9-5.9-2.8C219.9,65.7,221.9,66.8,223.9,68z"/>
			<path class="st10" d="M190.4,134.9c7.1-3,12.3-5.9,15.2-7.8c0.3,2.5,0.5,5.1,0.7,7.7h0c-1.6-0.5-3.6-1-6-1.2
				c-4.2-0.3-7.7,0.7-9.8,1.5L190.4,134.9z"/>
			<path class="st6" d="M43.3,23c0,4,3.2,7.3,7.2,7.3s7.2-3.3,7.2-7.3c0-4-3.2-7.3-7.2-7.3S43.3,19,43.3,23z M231.6,74
				C231.6,74,231.6,74,231.6,74c1.8,2.2,2.7,4.5,2.7,7c0,6.3-1.3,12.5-3.8,18.2c-2.5,5.9-6.3,11.4-11.1,16.5
				c-3.9,4.2-8.6,8-13.8,11.4c-2.8,1.8-8.1,4.8-15.2,7.8c-11.1,4.6-26.7,9.1-44.8,9.1c-0.4,0-0.9,0-1.3,0
				c-44.5-0.5-75-28.3-82.5-35.6c-3.3-3.4-6.7-7.2-10.1-11.2c-3.7-4.4-7.1-8.6-10.1-12.8c-1.9-2.7-4.4-6.3-7.1-10.6
				c-3.2-5.1-5.1-8.8-8.2-14.6c0,0-3.9-7.3-6.3-14.4c-1-3-1.8-6-1.8-8.4c0-0.1,0-0.3,0-0.4c0-0.1,0-0.2,0-0.2c0-3.1,0.4-6,1.1-8.9
				C20.5,22.9,33.5-0.1,54.3,0c13.6,0.1,24,10,29.7,15.4c6.7,6.3,11,13.6,23.3,22.3c2.5,1.8,4.7,3.2,6.1,4.1
				c13.4,8,25,11.5,33.1,13.1c25.4,5.2,43.7-0.8,71.4,10.3c2.2,0.9,4.2,1.8,5.9,2.8c0,0,0,0,0,0C227.3,70.1,230.3,72.8,231.6,74z"/>
			<ellipse class="st11" cx="50.5" cy="23" rx="7.2" ry="7.3"/>
			<path class="st12" d="M18.3,36.5c0.1,2.4,0.8,5.3,1.8,8.4l-1,0.3L0.4,41.4l0,0L18.3,36.5z"/>
			<path class="st12" d="M0,36.2l19.4-9.1c-0.7,2.9-1.1,5.8-1.1,8.9c0,0,0,0.1,0,0.2h-0.2L0,36.2z"/>
		</g>
		<g>
		</g>
	</g>
	<g class="st0">
		<path class="st14" d="M32.7,195.8l-6.2,8.4v15.2h-4.7v-49.9h4.7V197l20.2-27.5h5.4l-16.4,22.4l19.1,27.4h-5.7L32.7,195.8z"/>
		<path class="st14" d="M91.2,174.2c3,3.8,4.5,8.7,4.5,14.8v11c0,3.8-0.6,7.3-1.9,10.3c-1.3,3-3.3,5.4-6,7.2c-2.7,1.8-6,2.6-10,2.6
			c-4,0-7.3-0.9-10-2.6c-2.7-1.8-4.7-4.2-6-7.2c-1.3-3-1.9-6.5-1.9-10.3v-11c0-6.2,1.5-11.1,4.5-14.9c3-3.7,7.5-5.6,13.4-5.6
			C83.8,168.6,88.3,170.5,91.2,174.2z M68,177.3c-2.2,2.9-3.2,6.8-3.2,11.7v11.2c0,4.7,1.1,8.4,3.2,11.3c2.2,2.9,5.4,4.3,9.8,4.3
			c4.3,0,7.6-1.4,9.8-4.3c2.2-2.9,3.2-6.7,3.2-11.3V189c0-4.8-1.1-8.7-3.2-11.7c-2.1-2.9-5.4-4.4-9.8-4.4
			C73.5,172.9,70.2,174.4,68,177.3z"/>
		<path class="st14" d="M114.1,173.8v17.7h18.6v4.4h-18.6V215h20v4.3h-25v-49.9h25v4.3H114.1z"/>
		<path class="st14" d="M172.4,214.8v4.6h-24.9v-49.9h4.9v45.3H172.4z"/>
	</g>
	<g class="st0">
		<path class="st3" d="M37.1,192.1l-6.2,8.4v15.2h-4.7v-49.9h4.7v27.5l20.2-27.5h5.4l-16.4,22.4l19.1,27.4h-5.7L37.1,192.1z"/>
		<path class="st3" d="M95.6,170.6c3,3.8,4.5,8.7,4.5,14.8v11c0,3.8-0.6,7.3-1.9,10.3c-1.3,3-3.3,5.4-6,7.2c-2.7,1.8-6,2.6-10,2.6
			c-4,0-7.3-0.9-10-2.6c-2.7-1.8-4.7-4.2-6-7.2c-1.3-3-1.9-6.5-1.9-10.3v-11c0-6.2,1.5-11.1,4.5-14.9c3-3.7,7.5-5.6,13.4-5.6
			C88.1,164.9,92.6,166.8,95.6,170.6z M72.4,173.6c-2.2,2.9-3.2,6.8-3.2,11.7v11.2c0,4.7,1.1,8.4,3.2,11.3c2.2,2.9,5.4,4.3,9.8,4.3
			c4.3,0,7.6-1.4,9.8-4.3c2.2-2.9,3.2-6.7,3.2-11.3v-11.2c0-4.8-1.1-8.7-3.2-11.7c-2.1-2.9-5.4-4.4-9.8-4.4
			C77.8,169.3,74.5,170.7,72.4,173.6z"/>
		<path class="st3" d="M118.4,170.1v17.7H137v4.4h-18.6v19.1h20v4.3h-25v-49.9h25v4.3H118.4z"/>
		<path class="st3" d="M176.8,211.1v4.6h-24.9v-49.9h4.9v45.3H176.8z"/>
	</g>
	<g>
	</g>
	<g>
	</g>
	<g>
	</g>
	<g>
	</g>
	<g>
	</g>
</g>
</svg>
